<svg width="70" height="70" viewBox="0 0 70 70" fill="none" xmlns="http://www.w3.org/2000/svg">
<g clip-path="url(#clip0)">
<path d="M42.3828 59.8828H5.74219C3.32611 59.8828 1.36719 61.8417 1.36719 64.2578C1.36719 66.6739 3.32611 68.6328 5.74219 68.6328H42.3828C43.8931 68.6328 45.1172 67.4088 45.1172 65.8984V57.1484C45.1172 58.6588 43.8931 59.8828 42.3828 59.8828Z" fill="white"/>
<path d="M1.36719 64.8047V21.3281C1.36719 18.6098 3.57071 16.4062 6.28906 16.4062H42.3828C43.8931 16.4062 45.1172 17.6303 45.1172 19.1406V57.1484C45.1172 58.6588 43.8931 59.8828 42.3828 59.8828H1.36719V64.8047Z" fill="#3DA9FC"/>
<path d="M29.2578 1.36719V51.1328H68.6328V9.63867L60.3613 1.36719H29.2578Z" fill="#EDF2FA"/>
<path d="M68.6328 9.63867L60.3613 1.36719V9.63867H68.6328Z" fill="#D8EEFE"/>
<path d="M10.1172 34.5898C9.75777 34.5898 9.40475 34.7362 9.15054 34.9904C8.89633 35.2446 8.75 35.5976 8.75 35.957C8.75 36.3165 8.89633 36.6695 9.15054 36.9237C9.40475 37.1779 9.75777 37.3242 10.1172 37.3242C10.4766 37.3242 10.8296 37.1779 11.0838 36.9237C11.338 36.6695 11.4844 36.3165 11.4844 35.957C11.4844 35.5976 11.338 35.2446 11.0838 34.9904C10.8296 34.7362 10.4766 34.5898 10.1172 34.5898Z" fill="black"/>
<path d="M69.5995 8.67203L61.328 0.400543C61.0716 0.144196 60.724 0 60.3613 0H29.2578C28.5027 0 27.8906 0.61203 27.8906 1.36719V15.0391H6.28906C2.82143 15.0391 0 17.8605 0 21.3281V64.8047C0 64.9847 0.0357819 65.1561 0.0988006 65.3136C0.596008 67.977 2.93678 70 5.74219 70H42.3828C44.6445 70 46.4844 68.1602 46.4844 65.8984V52.5H68.6328C69.388 52.5 70 51.888 70 51.1328V9.63867C70 9.27605 69.8558 8.92838 69.5995 8.67203ZM61.7285 4.66766L65.3323 8.27148H61.7285V4.66766ZM42.3828 67.2656H5.74219C4.0834 67.2656 2.73438 65.9166 2.73438 64.2578C2.73438 62.599 4.0834 61.25 5.74219 61.25H42.3828C42.8624 61.25 43.3222 61.1667 43.75 61.015V65.8984C43.75 66.6525 43.1369 67.2656 42.3828 67.2656ZM43.75 57.1484C43.75 57.9025 43.1369 58.5156 42.3828 58.5156H11.4673C11.4774 58.4489 11.4844 58.3805 11.4844 58.3105V41.8813C11.4844 41.1267 10.8723 40.5141 10.1172 40.5141C9.36203 40.5141 8.75 41.1267 8.75 41.8813V58.3105C8.75 58.3805 8.75694 58.4489 8.76709 58.5156H5.74219C4.63989 58.5156 3.6097 58.8286 2.73438 59.369V21.3281C2.73438 19.3681 4.32907 17.7734 6.28906 17.7734H27.8906V51.1328C27.8906 51.888 28.5027 52.5 29.2578 52.5H43.75V57.1484ZM30.625 49.7656V2.73438H58.9941V9.63867C58.9941 10.3938 59.6062 11.0059 60.3613 11.0059H67.2656V49.7656H30.625Z" fill="black"/>
<path d="M61.8652 15.0391H38.1733C37.4182 15.0391 36.8062 15.6511 36.8062 16.4062C36.8062 17.1614 37.4182 17.7734 38.1733 17.7734H61.8652C62.6204 17.7734 63.2324 17.1614 63.2324 16.4062C63.2324 15.6511 62.6204 15.0391 61.8652 15.0391Z" fill="black"/>
<path d="M61.8652 22.6953H38.1733C37.4182 22.6953 36.8062 23.3073 36.8062 24.0625C36.8062 24.8177 37.4182 25.4297 38.1733 25.4297H61.8652C62.6204 25.4297 63.2324 24.8177 63.2324 24.0625C63.2324 23.3073 62.6204 22.6953 61.8652 22.6953Z" fill="black"/>
<path d="M61.8652 30.3516H38.1733C37.4182 30.3516 36.8062 30.9636 36.8062 31.7188C36.8062 32.4739 37.4182 33.0859 38.1733 33.0859H61.8652C62.6204 33.0859 63.2324 32.4739 63.2324 31.7188C63.2324 30.9636 62.6204 30.3516 61.8652 30.3516Z" fill="black"/>
<path d="M61.8652 38.0078H43.8867C43.1316 38.0078 42.5195 38.6198 42.5195 39.375C42.5195 40.1302 43.1316 40.7422 43.8867 40.7422H61.8652C62.6204 40.7422 63.2324 40.1302 63.2324 39.375C63.2324 38.6198 62.6204 38.0078 61.8652 38.0078Z" fill="black"/>
<path d="M38.1733 38.0078C37.8134 38.0078 37.4609 38.1541 37.2067 38.4084C36.9525 38.6626 36.8062 39.0156 36.8062 39.375C36.8062 39.7344 36.9525 40.0874 37.2067 40.3416C37.4609 40.5959 37.8134 40.7422 38.1733 40.7422C38.5328 40.7422 38.8858 40.5959 39.14 40.3416C39.3942 40.0874 39.5405 39.7344 39.5405 39.375C39.5405 39.0156 39.3942 38.6626 39.14 38.4084C38.8858 38.1541 38.5328 38.0078 38.1733 38.0078Z" fill="black"/>
</g>
<defs>
<clipPath id="clip0">
<rect width="70" height="70" fill="white"/>
</clipPath>
</defs>
</svg>
