<svg width="70" height="70" viewBox="0 0 70 70" fill="none" xmlns="http://www.w3.org/2000/svg">
<path d="M68.6328 37.8711C68.6328 27.5349 58.6251 18.9767 46.6756 17.5545L46.6484 17.5822L22.9143 49.9846C27.3983 55.0704 35.0545 58.3789 43.2032 58.3789C47.7971 58.3789 52.5 57.3396 56.1642 55.5078L65.4883 61.1133L61.7424 51.7342C65.7617 48.0978 68.6328 43.2304 68.6328 37.8711Z" fill="#90B4CE"/>
<path d="M46.6483 17.5822C49.6289 20.9724 51.4062 25.129 51.4062 29.668C51.4062 40.9884 39.9763 50.1758 26.3867 50.1758C25.2107 50.1758 24.0625 50.1213 22.9143 49.9846C19.633 49.6017 16.16 48.6719 13.4257 47.3047L4.10156 52.9102L7.84744 43.531C3.82812 39.8946 1.36719 35.0272 1.36719 29.668C1.36719 18.3475 12.7971 9.16016 26.3867 9.16016C34.5354 9.16016 42.1916 12.4686 46.6483 17.5822Z" fill="#D8EEFE"/>
<path d="M1.53278 26.9165C2.26604 27.0943 3.00518 26.6441 3.18355 25.9103C5.30963 17.1406 15.2848 10.5273 26.3868 10.5273C38.8175 10.5273 50.0391 18.5478 50.0391 29.668C50.0391 40.9483 38.2653 48.8086 26.3868 48.8086C21.7762 48.8086 17.1791 47.6529 14.0372 46.0817C13.6185 45.8723 13.1224 45.8916 12.7213 46.133L6.87763 49.646L9.11747 44.0384C9.32949 43.5075 9.18849 42.9008 8.76499 42.5174C6.60472 40.5627 4.98867 38.309 3.96167 35.8187C3.67328 35.1207 2.87433 34.7885 2.17632 35.0764C1.47831 35.3642 1.14559 36.1637 1.43345 36.8617C2.50263 39.453 4.11495 41.813 6.23302 43.8883L2.83214 52.4028C2.61425 52.9481 2.76859 53.5713 3.2156 53.9516C3.66367 54.3324 4.30347 54.3836 4.80602 54.0819L13.5005 48.8551C16.01 49.9995 19.13 50.8647 22.243 51.2775C27.1003 56.5124 35.0732 59.7461 43.2032 59.7461C47.7149 59.7461 52.3638 58.772 56.091 57.0592L64.7839 62.285C65.2859 62.5867 65.9257 62.536 66.3743 62.1547C66.8213 61.7744 66.9757 61.1512 66.7578 60.6059L63.358 52.0941C67.6486 47.9333 70 42.9147 70 37.8711C70 26.3557 58.9691 17.8194 47.293 16.2556C42.4678 11.0235 34.5199 7.79297 26.3868 7.79297C14.6065 7.79297 3.09543 14.6674 0.526081 25.2657C0.34824 25.9995 0.798985 26.7387 1.53278 26.9165ZM67.2657 37.8711C67.2657 42.3994 64.9783 46.9629 60.8249 50.7205C60.4009 51.104 60.2604 51.7107 60.4724 52.2415L62.7123 57.8491L56.8686 54.3361C56.4675 54.0952 55.9714 54.076 55.5527 54.2848C52.0867 56.0178 47.5856 57.0117 43.2032 57.0117C37.0011 57.0117 30.9262 54.97 26.5609 51.5414C40.0741 51.4671 52.7735 42.3257 52.7735 29.668C52.7735 26.0818 51.7475 22.6195 49.7838 19.4968C59.8134 21.9017 67.2657 29.5104 67.2657 37.8711Z" fill="black"/>
<path d="M2.73438 31.0352C2.73438 31.7903 2.12234 32.4023 1.36719 32.4023C0.61203 32.4023 0 31.7903 0 31.0352C0 30.28 0.61203 29.668 1.36719 29.668C2.12234 29.668 2.73438 30.28 2.73438 31.0352Z" fill="black"/>
</svg>
