<svg width="70" height="70" viewBox="0 0 70 70" fill="none" xmlns="http://www.w3.org/2000/svg">
<path d="M4.06615 8.83243C2.57551 8.83243 1.36719 10.0407 1.36719 11.5314V53.2325H61.5172V11.5314C61.5172 10.0409 60.3088 8.83243 58.8182 8.83243H4.06615Z" fill="#DAE9EC"/>
<path d="M56.0479 14.3008H6.83594V53.2314H56.0479V14.3008Z" fill="#3DA9FC"/>
<path d="M44.6383 39.1562C44.3649 39.1562 44.2078 39.0639 43.9226 38.8963C43.7999 38.8241 43.5965 38.7027 43.3246 38.5332C42.8843 38.2589 42.2059 37.8225 41.4731 37.3C39.5257 35.9112 38.336 34.7501 37.836 33.75C37.2268 32.5317 37.0456 31.1467 37.3259 29.8503C37.606 28.5541 38.3079 27.4669 39.3023 26.7893C39.9858 26.3235 40.7817 26.0773 41.6041 26.0773C41.9421 26.0773 42.2876 26.1183 42.6309 26.1993C43.4659 26.396 43.981 26.8119 44.413 27.2319L44.6384 27.4511L44.8639 27.2319C45.2959 26.8119 45.8108 26.3961 46.646 26.1993C46.9893 26.1183 47.3347 26.0773 47.6726 26.0773C48.495 26.0773 49.291 26.3235 49.9744 26.7893C50.9688 27.467 51.6707 28.5541 51.9508 29.8505C52.2311 31.1468 52.0498 32.5318 51.4406 33.7502C50.9406 34.7502 49.7509 35.9115 47.8035 37.3001C47.0708 37.8227 46.3923 38.2591 45.952 38.5333C45.68 38.7027 45.4767 38.8243 45.354 38.8963C45.0688 39.0639 44.9117 39.1562 44.6383 39.1562Z" fill="#EF4565"/>
<path d="M44.6382 40.5235C43.9928 40.5235 43.5874 40.2853 43.2299 40.0752C43.0987 39.9979 42.8837 39.8695 42.6014 39.6937C42.1441 39.4088 41.4393 38.9553 40.6791 38.4132C38.5158 36.8705 37.2237 35.583 36.613 34.3616C35.865 32.8658 35.6435 31.1611 35.9894 29.5616C36.3441 27.9213 37.2471 26.5356 38.5322 25.6597C39.8115 24.7875 41.3946 24.5033 42.9443 24.8685C43.6552 25.0361 44.1987 25.3179 44.6382 25.6329C45.0781 25.3177 45.6212 25.036 46.3322 24.8685C47.8819 24.5033 49.4648 24.7875 50.7442 25.6595C52.0294 26.5355 52.9326 27.9211 53.2872 29.5615C53.633 31.1611 53.4115 32.8658 52.6636 34.3616C52.0528 35.583 50.7608 36.8705 48.5973 38.4132C47.8373 38.9553 47.1325 39.4087 46.6752 39.6937C46.3908 39.8709 46.1766 39.9989 46.0469 40.075C45.6886 40.2854 45.2834 40.5235 44.6382 40.5235ZM44.8026 37.824H44.8039H44.8026ZM41.604 27.4445C41.0574 27.4445 40.5278 27.6086 40.0722 27.9191C39.3687 28.3986 38.868 29.187 38.6621 30.1393C38.4475 31.1325 38.5883 32.1977 39.0587 33.1386C39.3284 33.6778 40.1038 34.6444 42.2669 36.187C42.9697 36.6882 43.623 37.1085 44.0473 37.3729C44.3057 37.534 44.4989 37.6494 44.6154 37.718C44.6228 37.7224 44.6303 37.7267 44.6381 37.7313C44.6459 37.7267 44.6534 37.7222 44.6609 37.7179C44.7777 37.6492 44.9709 37.5338 45.2289 37.3729C45.6534 37.1085 46.3066 36.6882 47.0092 36.187C49.1724 34.6444 49.9478 33.678 50.2175 33.1387C50.6879 32.1977 50.8289 31.1325 50.6141 30.1393C50.4082 29.187 49.9075 28.3986 49.204 27.9191C48.7484 27.6087 48.2186 27.4445 47.672 27.4445C47.4395 27.4445 47.1997 27.4732 46.959 27.53C46.4722 27.6447 46.1713 27.867 45.8162 28.2122L45.5912 28.4312C45.0606 28.9472 44.2154 28.9472 43.6849 28.4312L43.4596 28.2121C43.1047 27.8671 42.8039 27.6448 42.3169 27.5301C42.0765 27.4734 41.8367 27.4445 41.604 27.4445Z" fill="black"/>
<path d="M63.9661 61.1676H6.03395C3.45666 61.1676 1.36719 59.0782 1.36719 56.5008V53.2325H68.6328V56.5008C68.6328 59.0782 66.5433 61.1676 63.9661 61.1676Z" fill="#C4BFC2"/>
<path d="M47.3538 50.0937C47.265 50.0937 47.1747 50.0841 47.0858 50.0664C46.9997 50.0486 46.9135 50.0226 46.8303 49.9884C46.7481 49.9543 46.6688 49.9119 46.595 49.8626C46.5198 49.8134 46.45 49.756 46.3872 49.6931C46.3243 49.6302 46.2668 49.5605 46.2163 49.4853C46.167 49.4115 46.1247 49.3308 46.0905 49.2488C46.0563 49.1668 46.0303 49.0806 46.0125 48.9931C45.9948 48.9056 45.9866 48.8154 45.9866 48.7265C45.9866 48.6376 45.9948 48.5474 46.0125 48.4585C46.0303 48.3724 46.0563 48.2863 46.0905 48.2029C46.1247 48.1209 46.167 48.0416 46.2163 47.9677C46.2668 47.8925 46.3243 47.8228 46.3872 47.7599C46.45 47.6969 46.5198 47.6396 46.595 47.589C46.6688 47.5398 46.7481 47.4974 46.8303 47.4632C46.9135 47.4291 46.9997 47.4031 47.0858 47.3853C47.2622 47.3498 47.444 47.3498 47.6204 47.3853C47.708 47.4031 47.7941 47.4291 47.876 47.4632C47.9594 47.4974 48.0387 47.5398 48.1125 47.589C48.1877 47.6396 48.2575 47.6969 48.3204 47.7599C48.3832 47.8228 48.4407 47.8925 48.4899 47.9677C48.5391 48.0414 48.5815 48.1209 48.6157 48.2029C48.6499 48.2863 48.6758 48.3724 48.6936 48.4585C48.7114 48.5474 48.7208 48.6376 48.7208 48.7265C48.7208 48.8154 48.7114 48.9056 48.6936 48.9931C48.6758 49.0806 48.6499 49.1668 48.6157 49.2488C48.5815 49.3308 48.5391 49.4115 48.4899 49.4853C48.4407 49.5605 48.3832 49.6302 48.3204 49.6931C48.2575 49.756 48.1877 49.8134 48.1125 49.8626C48.0387 49.9119 47.9594 49.9543 47.876 49.9884C47.794 50.0226 47.708 50.0486 47.6204 50.0664C47.533 50.0841 47.4428 50.0937 47.3538 50.0937Z" fill="black"/>
<path d="M57.7632 58.7061H44.6382C43.8832 58.7061 43.271 58.094 43.271 57.3389C43.271 56.5838 43.8832 55.9717 44.6382 55.9717H57.7632C58.5181 55.9717 59.1304 56.5838 59.1304 57.3389C59.1304 58.094 58.5183 58.7061 57.7632 58.7061Z" fill="black"/>
<path d="M32.4078 40.7367C33.1187 38.7216 32.8093 36.8808 31.4453 35.127C30.5682 33.9967 30.0814 32.6123 30.0581 31.1814V27.4032C30.0581 23.2298 26.675 19.8467 22.5017 19.8467C18.3284 19.8467 14.9453 23.2298 14.9453 27.4032V31.3704C14.9442 32.6469 14.5188 33.8867 13.7362 34.8948L13.3908 35.3374C12.1381 36.9479 11.8423 38.9052 12.5748 40.7519" fill="#FED271"/>
<path d="M19.0804 39.2058H15.5299C13.68 39.1198 12.1802 40.6194 12.1802 42.4694V48.7262H32.7778V42.4694C32.7778 40.6194 31.2781 39.1198 29.4281 39.2058H25.9229" fill="#EF4565"/>
<path d="M24.6604 23.6251C21.9617 27.4033 16.5643 30.6418 16.5643 30.6418L16.6938 32.3258C16.8785 34.7033 18.4843 36.6525 20.3808 37.3663V39.2057H19.0802V41.7878C19.0802 42.9999 20.0628 43.9825 21.275 43.9825H23.728C24.9401 43.9825 25.9227 42.9999 25.9227 41.7878V39.2057H24.5769V37.3498C26.4812 36.6112 28.0761 34.6243 28.2174 32.2234L28.4388 28.4829C26.2797 26.8636 24.6604 23.6251 24.6604 23.6251Z" fill="#FDE89F"/>
<path d="M68.6328 51.8653H62.8843V11.5314C62.8843 9.28934 61.0602 7.46524 58.8183 7.46524H4.06615C1.8241 7.46524 0 9.28934 0 11.5314V56.5008C0 59.828 2.70689 62.5347 6.03408 62.5347H63.9659C67.2931 62.5347 70 59.828 70 56.5008V53.2325C70 52.4774 69.3878 51.8653 68.6328 51.8653ZM2.73438 11.5314C2.73438 10.7971 3.33184 10.1996 4.06615 10.1996H58.8183C59.5526 10.1996 60.15 10.7971 60.15 11.5314V51.8653H57.4156V14.3012C57.4156 13.5461 56.8034 12.934 56.0484 12.934H6.83594C6.08098 12.934 5.46875 13.5461 5.46875 14.3012V51.8653H2.73438V11.5314ZM8.20312 50.0933H41.6773C42.4323 50.0933 43.0445 49.4812 43.0445 48.7261C43.0445 47.971 42.4323 47.3589 41.6773 47.3589H34.145V42.4693C34.145 41.8875 34.0359 41.3148 33.8305 40.7811C34.5182 38.4702 34.0799 36.2877 32.5253 34.2889C31.8362 33.4009 31.4457 32.2936 31.4251 31.1698V27.4033C31.4251 22.4828 27.422 18.4797 22.5014 18.4797C17.5811 18.4797 13.5779 22.4828 13.5779 27.4033V31.3693C13.5771 32.3374 13.2498 33.2918 12.6581 34.0538L12.3114 34.4981C10.8676 36.3543 10.449 38.6147 11.1311 40.7712C10.9233 41.3076 10.8128 41.8839 10.8128 42.4693V47.3589H8.20312V15.6684H54.6812V51.8653H8.20312V50.0933ZM13.5473 42.4693C13.5473 41.9297 13.7572 41.4322 14.1384 41.0684C14.4982 40.7249 14.9687 40.5489 15.4663 40.5714C15.4875 40.5724 15.5087 40.5729 15.5299 40.5729H17.7133V41.7878C17.7133 43.7519 19.3113 45.3497 21.2752 45.3497H23.7281C25.6922 45.3497 27.2902 43.7518 27.2902 41.7878V40.5729H29.4282C29.4494 40.5729 29.4705 40.5725 29.4917 40.5714C29.9869 40.548 30.4597 40.7247 30.8197 41.0684C31.2009 41.4322 31.4107 41.9297 31.4107 42.4693V47.3589H13.5473V42.4693ZM24.0827 36.075C23.5565 36.2791 23.2098 36.7854 23.2098 37.3498V39.2059C23.2098 39.9538 23.8105 40.5614 24.5558 40.5729V41.7879C24.5558 42.2443 24.1845 42.6155 23.7281 42.6155H21.2752C20.8188 42.6155 20.4477 42.2443 20.4477 41.7879V40.5715C21.1717 40.5368 21.7483 39.9387 21.7483 39.206V37.3666C21.7483 36.7973 21.3955 36.2875 20.8626 36.087C19.3432 35.5151 18.1895 33.9251 18.0571 32.2213L17.9908 31.3588C19.3272 30.4894 22.2344 28.471 24.4757 26.0124C25.1065 26.9795 25.9904 28.1645 27.033 29.0955L26.8528 32.143C26.7512 33.8649 25.6122 35.4819 24.0827 36.075ZM29.399 37.8385H26.5255C27.8096 36.9255 28.7837 35.5724 29.2637 34.0376C29.539 34.7267 29.9094 35.378 30.3661 35.9664C30.9384 36.7024 31.2726 37.4378 31.3742 38.2038C30.7595 37.9379 30.0885 37.8115 29.399 37.8385ZM25.883 23.0133C25.6687 22.5846 25.2453 22.2996 24.7674 22.2622C24.2908 22.2255 23.8267 22.4403 23.5479 22.8305C21.4867 25.7162 17.6269 28.3399 16.3123 29.1857V27.4035C16.3123 23.9907 19.0888 21.2142 22.5014 21.2142C25.7406 21.2142 28.4063 23.7154 28.6692 26.8878C27.0948 25.3951 25.9094 23.0654 25.883 23.0133ZM15.7075 34.2335C16.2098 35.6878 17.159 36.9655 18.3879 37.8385H15.5587C14.8673 37.8113 14.197 37.9377 13.5836 38.2033C13.682 37.4952 13.9788 36.8084 14.4684 36.1788L14.8159 35.7333C15.1748 35.2711 15.4737 34.7663 15.7075 34.2335ZM67.2656 56.5008C67.2656 58.3202 65.7854 59.8004 63.9659 59.8004H6.03408C4.21463 59.8004 2.73438 58.3201 2.73438 56.5008V54.5997H67.2656V56.5008Z" fill="black"/>
</svg>
