<svg width="70" height="70" viewBox="0 0 70 70" fill="none" xmlns="http://www.w3.org/2000/svg">
<path d="M50.3427 61.25V68.6328H19.6572V61.25H50.3427Z" fill="#094067"/>
<path d="M40.9498 48.9453L42.3499 61.25H27.6499L29.05 48.9453H40.9498Z" fill="#D1D3D4"/>
<path d="M68.6328 1.36719H1.36719V48.9453H68.6328V1.36719Z" fill="white"/>
<path d="M63.169 6.97266H6.8313V43.3398H63.169V6.97266Z" fill="#3DA9FC"/>
<path d="M68.6328 0H1.36719C0.61209 0 0 0.61209 0 1.36719V48.9453C0 49.7004 0.61209 50.3125 1.36719 50.3125H27.5183L26.4294 59.8828H19.6571C18.9021 59.8828 18.29 60.4949 18.29 61.25V68.6328C18.29 69.3879 18.9021 70 19.6571 70H50.3426C51.0977 70 51.7098 69.3879 51.7098 68.6328V61.25C51.7098 60.4949 51.0977 59.8828 50.3426 59.8828H43.5704L42.4814 50.3125H68.6328C69.3879 50.3125 70 49.7004 70 48.9453V1.36719C70 0.61209 69.3879 0 68.6328 0ZM48.9754 67.2656H21.0243V62.6172H27.6497H42.3499H48.9754V67.2656ZM40.8183 59.8828H29.1814L30.2704 50.3125H39.7292L40.8183 59.8828ZM67.2656 47.5781H2.73438V2.73438H67.2656V47.5781Z" fill="black"/>
<path d="M6.83594 44.8438H30.0238C30.7789 44.8438 31.391 44.2317 31.391 43.4766C31.391 42.7215 30.7789 42.1094 30.0238 42.1094H8.20312V8.20312H61.7969V42.1094H39.9805C39.2254 42.1094 38.6133 42.7215 38.6133 43.4766C38.6133 44.2317 39.2254 44.8438 39.9805 44.8438H63.1641C63.9192 44.8438 64.5312 44.2317 64.5312 43.4766V6.83594C64.5312 6.08084 63.9192 5.46875 63.1641 5.46875H6.83594C6.08084 5.46875 5.46875 6.08084 5.46875 6.83594V43.4766C5.46875 44.2317 6.08084 44.8438 6.83594 44.8438Z" fill="black"/>
<path d="M35.2105 42.1094H35.158C34.4029 42.1094 33.7908 42.7215 33.7908 43.4766C33.7908 44.2317 34.4029 44.8438 35.158 44.8438H35.2105C35.9656 44.8438 36.5777 44.2317 36.5777 43.4766C36.5777 42.7215 35.9656 42.1094 35.2105 42.1094Z" fill="black"/>
<path d="M44.6066 30.0603C45.1405 29.5265 45.1406 28.6607 44.6066 28.1269L27.5966 11.1167C27.0626 10.5828 26.197 10.5828 25.6632 11.1167C25.1293 11.6506 25.1291 12.5163 25.6632 13.0503L42.6731 30.0603C42.9402 30.3274 43.29 30.4608 43.6399 30.4608C43.9897 30.4607 44.3396 30.3272 44.6066 30.0603Z" fill="black"/>
<path d="M27.3267 20.4656C26.7928 19.9317 25.9271 19.9317 25.3931 20.4656C24.8592 20.9995 24.8592 21.8652 25.3931 22.3992L29.8987 26.9048C30.1657 27.1718 30.5155 27.3052 30.8654 27.3052C31.2153 27.3052 31.5653 27.1718 31.8321 26.9048C32.366 26.3709 32.366 25.5052 31.8321 24.9711L27.3267 20.4656Z" fill="black"/>
<path d="M35.0031 30.0703C35.5356 29.5349 35.5333 28.6694 34.9979 28.1369L34.9852 28.1243C34.4499 27.5919 33.5842 27.5941 33.0517 28.1295C32.5192 28.6649 32.5215 29.5304 33.0569 30.063L33.0696 30.0755C33.3363 30.3408 33.685 30.4734 34.0337 30.4734C34.3848 30.4734 34.7359 30.3388 35.0031 30.0703Z" fill="black"/>
<path d="M38.0995 31.2386C37.5656 30.7047 36.6999 30.7047 36.166 31.2386C35.6322 31.7725 35.6322 32.6382 36.166 33.1721L40.7227 37.7288C40.9898 37.9958 41.3396 38.1292 41.6895 38.1292C42.0393 38.1292 42.3893 37.9957 42.6562 37.7288C43.1901 37.1949 43.1901 36.3292 42.6562 35.7953L38.0995 31.2386Z" fill="black"/>
</svg>
