<?xml version="1.0" encoding="utf-8"?><svg xmlns="http://www.w3.org/2000/svg" xmlns:xlink="http://www.w3.org/1999/xlink"><symbol fill="none" viewBox="0 0 70 70" id="book" xmlns="http://www.w3.org/2000/svg"><g clip-path="url(#aclip0)"><path d="M42.383 59.883H5.743a4.375 4.375 0 000 8.75h36.64a2.734 2.734 0 002.734-2.735v-8.75a2.734 2.734 0 01-2.734 2.735z" fill="#fff"/><path d="M1.367 64.805V21.328a4.922 4.922 0 014.922-4.922h36.094a2.734 2.734 0 012.734 2.735v38.007a2.734 2.734 0 01-2.734 2.735H1.367v4.922z" fill="#3DA9FC"/><path d="M29.258 1.367v49.766h39.375V9.639L60.36 1.367H29.258z" fill="#EDF2FA"/><path d="M68.633 9.639L60.36 1.367V9.64h8.272z" fill="#D8EEFE"/><path d="M10.117 34.59c-.36 0-.712.146-.966.4-.255.255-.401.608-.401.967 0 .36.146.712.4.967.255.254.608.4.967.4.36 0 .713-.146.967-.4.254-.255.4-.608.4-.967 0-.36-.146-.712-.4-.967a1.378 1.378 0 00-.967-.4z" fill="#000"/><path d="M69.6 8.672L61.328.401A1.367 1.367 0 0060.361 0H29.258c-.755 0-1.367.612-1.367 1.367V15.04H6.289A6.296 6.296 0 000 21.33v43.476c0 .18.036.351.099.509A5.75 5.75 0 005.742 70h36.64a4.106 4.106 0 004.102-4.102V52.5h22.149c.755 0 1.367-.612 1.367-1.367V9.639c0-.363-.144-.71-.4-.967zm-7.871-4.004l3.603 3.603H61.73V4.668zM42.382 67.266H5.743a3.01 3.01 0 01-3.009-3.008 3.01 3.01 0 013.008-3.008h36.64c.48 0 .94-.083 1.368-.235v4.883c0 .755-.613 1.368-1.367 1.368zm1.367-10.118c0 .755-.613 1.368-1.367 1.368H11.467c.01-.067.017-.136.017-.206V41.882a1.367 1.367 0 00-2.734 0v16.43c0 .07.007.138.017.205H5.742a5.708 5.708 0 00-3.008.853v-38.04a3.559 3.559 0 013.555-3.556h21.602v33.36c0 .755.612 1.367 1.367 1.367H43.75v4.648zm-13.125-7.382V2.734h28.37V9.64c0 .755.611 1.367 1.366 1.367h6.905v38.76H30.625z" fill="#000"/><path d="M61.865 15.04H38.173a1.367 1.367 0 100 2.733h23.692a1.367 1.367 0 100-2.734zM61.865 22.695H38.173a1.367 1.367 0 100 2.735h23.692a1.367 1.367 0 100-2.735zM61.865 30.352H38.173a1.367 1.367 0 100 2.734h23.692a1.367 1.367 0 100-2.734zM61.865 38.008H43.887a1.367 1.367 0 100 2.734h17.978a1.367 1.367 0 100-2.734zM38.173 38.008c-.36 0-.712.146-.966.4-.255.255-.4.608-.4.967 0 .36.145.712.4.967.254.254.606.4.966.4s.713-.146.967-.4c.254-.255.4-.608.4-.967 0-.36-.146-.712-.4-.967a1.378 1.378 0 00-.967-.4z" fill="#000"/></g><defs><clipPath id="aclip0"><path fill="#fff" d="M0 0h70v70H0z"/></clipPath></defs></symbol><symbol fill="none" viewBox="0 0 70 70" id="bubble" xmlns="http://www.w3.org/2000/svg"><path d="M68.633 37.871c0-10.336-10.008-18.894-21.957-20.317l-.028.028-23.734 32.403c4.484 5.085 12.14 8.394 20.29 8.394 4.593 0 9.296-1.04 12.96-2.871l9.324 5.605-3.746-9.379c4.02-3.636 6.89-8.504 6.89-13.863z" fill="#90B4CE"/><path d="M46.648 17.582c2.98 3.39 4.758 7.547 4.758 12.086 0 11.32-11.43 20.508-25.02 20.508-1.175 0-2.323-.055-3.472-.191-3.281-.383-6.754-1.313-9.488-2.68L4.102 52.91l3.745-9.379c-4.019-3.636-6.48-8.504-6.48-13.863 0-11.32 11.43-20.508 25.02-20.508 8.148 0 15.805 3.309 20.261 8.422z" fill="#D8EEFE"/><path d="M1.533 26.916a1.367 1.367 0 001.65-1.006c2.127-8.77 12.102-15.383 23.204-15.383 12.43 0 23.652 8.02 23.652 19.141 0 11.28-11.774 19.14-23.652 19.14-4.61 0-9.208-1.155-12.35-2.726a1.366 1.366 0 00-1.316.051l-5.843 3.513 2.24-5.608a1.368 1.368 0 00-.353-1.52c-2.16-1.955-3.776-4.209-4.803-6.7a1.367 1.367 0 00-2.529 1.044c1.07 2.591 2.682 4.951 4.8 7.026l-3.4 8.515a1.367 1.367 0 001.973 1.679l8.695-5.227c2.509 1.145 5.629 2.01 8.742 2.423 4.857 5.234 12.83 8.468 20.96 8.468 4.512 0 9.16-.974 12.888-2.687l8.693 5.226a1.367 1.367 0 001.974-1.68l-3.4-8.51C67.648 47.932 70 42.914 70 37.87c0-11.515-11.03-20.052-22.707-21.615-4.825-5.232-12.773-8.463-20.906-8.463-11.78 0-23.292 6.874-25.86 17.473a1.367 1.367 0 001.006 1.65zm65.733 10.955c0 4.528-2.288 9.092-6.441 12.85-.424.383-.565.99-.353 1.52l2.24 5.608-5.843-3.513a1.369 1.369 0 00-1.316-.051c-3.466 1.733-7.967 2.727-12.35 2.727-6.202 0-12.277-2.042-16.642-5.47 13.513-.075 26.212-9.216 26.212-21.874 0-3.586-1.026-7.049-2.99-10.171 10.03 2.405 17.483 10.013 17.483 18.374z" fill="#000"/><path d="M2.734 31.035a1.367 1.367 0 11-2.734 0 1.367 1.367 0 012.734 0z" fill="#000"/></symbol><symbol fill="none" viewBox="0 0 70 70" id="laptop" xmlns="http://www.w3.org/2000/svg"><path d="M4.066 8.832a2.699 2.699 0 00-2.699 2.7v41.7h60.15v-41.7a2.7 2.7 0 00-2.699-2.7H4.066z" fill="#DAE9EC"/><path d="M56.048 14.3H6.836v38.931h49.212v-38.93z" fill="#3DA9FC"/><path d="M44.638 39.156c-.273 0-.43-.092-.715-.26a36.527 36.527 0 01-2.45-1.596c-1.947-1.389-3.137-2.55-3.637-3.55a5.946 5.946 0 01-.51-3.9c.28-1.296.982-2.383 1.976-3.06a4.072 4.072 0 012.302-.713c.338 0 .684.041 1.027.122.835.197 1.35.613 1.782 1.033l.225.22.226-.22c.432-.42.947-.836 1.782-1.033a4.48 4.48 0 011.027-.122c.822 0 1.618.246 2.301.712.995.678 1.697 1.765 1.977 3.061a5.947 5.947 0 01-.51 3.9c-.5 1-1.69 2.161-3.638 3.55a36.345 36.345 0 01-2.449 1.596c-.285.168-.442.26-.716.26z" fill="#EF4565"/><path d="M44.638 40.523c-.645 0-1.05-.238-1.408-.448a37.924 37.924 0 01-2.55-1.662c-2.164-1.543-3.456-2.83-4.067-4.051a7.317 7.317 0 01-.624-4.8c.355-1.64 1.258-3.026 2.543-3.902 1.28-.872 2.863-1.157 4.412-.791a4.7 4.7 0 011.694.764c.44-.315.983-.597 1.694-.764 1.55-.366 3.133-.081 4.412.79 1.285.877 2.189 2.262 2.543 3.902a7.319 7.319 0 01-.623 4.8c-.611 1.222-1.903 2.51-4.067 4.052a37.912 37.912 0 01-2.55 1.662c-.358.21-.764.448-1.409.448zm.165-2.699zm-3.199-10.38a2.71 2.71 0 00-1.532.475c-.703.48-1.204 1.268-1.41 2.22a4.576 4.576 0 00.397 3c.27.539 1.045 1.505 3.208 3.048a35.16 35.16 0 002.348 1.531l.023.013.023-.013a34.984 34.984 0 002.348-1.53c2.163-1.544 2.939-2.51 3.209-3.05.47-.94.61-2.005.396-2.999-.206-.952-.706-1.74-1.41-2.22a2.712 2.712 0 00-1.532-.474c-.232 0-.472.028-.713.085-.487.115-.788.337-1.143.682l-.225.22a1.367 1.367 0 01-1.906 0l-.225-.22c-.355-.345-.656-.567-1.143-.682a3.113 3.113 0 00-.713-.085z" fill="#000"/><path d="M63.966 61.168H6.034A4.667 4.667 0 011.367 56.5v-3.268h67.266V56.5a4.667 4.667 0 01-4.667 4.667z" fill="#C4BFC2"/><path d="M47.354 50.094a1.378 1.378 0 01-1.264-.845 1.38 1.38 0 01-.078-.79 1.387 1.387 0 01.582-.87 1.384 1.384 0 01.492-.204 1.355 1.355 0 011.026.204 1.392 1.392 0 01.378.379 1.387 1.387 0 01.23.758 1.344 1.344 0 01-.104.523 1.402 1.402 0 01-.296.444 1.338 1.338 0 01-.7.373 1.35 1.35 0 01-.266.028zM57.763 58.706H44.638a1.367 1.367 0 010-2.734h13.125a1.367 1.367 0 010 2.734z" fill="#000"/><path d="M32.408 40.737c.71-2.015.401-3.856-.963-5.61a6.611 6.611 0 01-1.387-3.946v-3.778a7.556 7.556 0 10-15.113 0v3.967a5.755 5.755 0 01-1.209 3.525l-.345.442c-1.253 1.61-1.549 3.568-.816 5.415" fill="#FED271"/><path d="M19.08 39.206h-3.55c-1.85-.086-3.35 1.413-3.35 3.263v6.257h20.598V42.47c0-1.85-1.5-3.35-3.35-3.263h-3.505" fill="#EF4565"/><path d="M24.66 23.625c-2.698 3.778-8.096 7.017-8.096 7.017l.13 1.684c.184 2.377 1.79 4.327 3.687 5.04v1.84h-1.3v2.582c0 1.212.982 2.195 2.194 2.195h2.453a2.195 2.195 0 002.195-2.195v-2.582h-1.346V37.35c1.904-.739 3.5-2.726 3.64-5.127l.222-3.74c-2.16-1.62-3.779-4.858-3.779-4.858z" fill="#FDE89F"/><path d="M68.633 51.865h-5.749V11.531a4.07 4.07 0 00-4.066-4.066H4.066A4.07 4.07 0 000 11.531v44.97a6.04 6.04 0 006.034 6.034h57.932A6.04 6.04 0 0070 56.5v-3.268c0-.756-.612-1.368-1.367-1.368zM2.734 11.531c0-.734.598-1.331 1.332-1.331h54.752c.735 0 1.332.597 1.332 1.331v40.334h-2.734V14.301c0-.755-.613-1.367-1.368-1.367H6.836c-.755 0-1.367.612-1.367 1.367v37.564H2.734V11.531zm5.47 38.562h33.473a1.367 1.367 0 000-2.734h-7.532v-4.89c0-.581-.11-1.154-.315-1.688.688-2.31.25-4.493-1.305-6.492a5.277 5.277 0 01-1.1-3.12v-3.766c0-4.92-4.003-8.923-8.924-8.923-4.92 0-8.923 4.003-8.923 8.923v3.966c0 .968-.328 1.923-.92 2.685l-.347.444c-1.443 1.856-1.862 4.117-1.18 6.273a4.705 4.705 0 00-.318 1.698v4.89h-2.61v-31.69h46.478v36.196H8.203v-1.772zm5.343-7.624c0-.54.21-1.037.591-1.4.36-.344.83-.52 1.328-.498l.064.002h2.183v1.215a3.566 3.566 0 003.562 3.562h2.453a3.566 3.566 0 003.562-3.562v-1.215h2.138c.021 0 .043 0 .064-.002.495-.023.968.154 1.328.497.38.364.59.862.59 1.401v4.89H13.548v-4.89zm10.536-6.394c-.526.204-.873.71-.873 1.275v1.856c0 .748.6 1.355 1.346 1.367v1.215a.829.829 0 01-.828.828h-2.453a.828.828 0 01-.827-.828v-1.216a1.367 1.367 0 001.3-1.366v-1.84c0-.569-.353-1.078-.885-1.279-1.52-.572-2.674-2.162-2.806-3.866l-.066-.862c1.336-.87 4.243-2.888 6.485-5.347.63.968 1.514 2.152 2.557 3.084l-.18 3.047c-.102 1.722-1.24 3.339-2.77 3.932zm5.316 1.764h-2.873a7.39 7.39 0 002.738-3.801c.275.689.645 1.34 1.102 1.928.572.736.907 1.472 1.008 2.238a4.515 4.515 0 00-1.975-.365zm-3.516-14.826a1.366 1.366 0 00-2.335-.183c-2.061 2.886-5.921 5.51-7.236 6.356v-1.782a6.196 6.196 0 016.19-6.19 6.198 6.198 0 016.167 5.674c-1.574-1.493-2.76-3.823-2.786-3.875zm-10.175 11.22a7.408 7.408 0 002.68 3.606h-2.83a4.508 4.508 0 00-1.974.364c.098-.708.395-1.395.884-2.024l.348-.446c.359-.462.658-.967.891-1.5zm51.558 22.268c0 1.82-1.48 3.3-3.3 3.3H6.034c-1.82 0-3.3-1.48-3.3-3.3V54.6h64.532v1.9z" fill="#000"/></symbol><symbol fill="none" viewBox="0 0 70 70" id="screen" xmlns="http://www.w3.org/2000/svg"><path d="M50.343 61.25v7.383H19.657V61.25h30.686z" fill="#094067"/><path d="M40.95 48.945l1.4 12.305h-14.7l1.4-12.305h11.9z" fill="#D1D3D4"/><path d="M68.633 1.367H1.367v47.578h67.266V1.367z" fill="#fff"/><path d="M63.169 6.973H6.831V43.34H63.17V6.973z" fill="#3DA9FC"/><path d="M68.633 0H1.367C.612 0 0 .612 0 1.367v47.578c0 .755.612 1.367 1.367 1.367h26.151l-1.089 9.57h-6.772c-.755 0-1.367.613-1.367 1.368v7.383c0 .755.612 1.367 1.367 1.367h30.686c.755 0 1.367-.612 1.367-1.367V61.25c0-.755-.612-1.367-1.367-1.367H43.57l-1.089-9.57h26.152c.755 0 1.367-.613 1.367-1.368V1.367C70 .612 69.388 0 68.633 0zM48.975 67.266h-27.95v-4.649h27.95v4.649zm-8.157-7.383H29.181l1.09-9.57h9.458l1.09 9.57zm26.448-12.305H2.734V2.734h64.532v44.844z" fill="#000"/><path d="M6.836 44.844h23.188a1.367 1.367 0 100-2.735H8.204V8.203h53.593V42.11H39.98a1.367 1.367 0 100 2.735h23.183c.755 0 1.367-.612 1.367-1.367V6.836c0-.755-.612-1.367-1.367-1.367H6.836c-.755 0-1.367.612-1.367 1.367v36.64c0 .756.612 1.368 1.367 1.368z" fill="#000"/><path d="M35.21 42.11h-.052a1.367 1.367 0 100 2.734h.053a1.367 1.367 0 100-2.735zM44.607 30.06c.534-.534.534-1.4 0-1.933l-17.01-17.01a1.367 1.367 0 10-1.934 1.933l17.01 17.01a1.364 1.364 0 001.934 0zM27.327 20.466a1.367 1.367 0 00-1.934 1.933l4.506 4.506c.267.267.616.4.966.4s.7-.133.967-.4c.534-.534.534-1.4 0-1.934l-4.505-4.505zM35.003 30.07c.533-.535.53-1.4-.005-1.933l-.013-.013a1.367 1.367 0 00-1.928 1.939l.013.013c.266.265.615.397.964.397.35 0 .702-.134.97-.403zM38.1 31.239a1.367 1.367 0 00-1.934 1.933l4.557 4.557a1.363 1.363 0 001.933 0c.534-.534.534-1.4 0-1.934L38.1 31.24z" fill="#000"/></symbol><symbol viewBox="0 0 NaN NaN" id="sprite" xmlns="http://www.w3.org/2000/svg"/></svg>