<svg width="126" height="25" viewBox="0 0 126 25" fill="none" xmlns="http://www.w3.org/2000/svg">
<path d="M2.0138 16.9626C3.80506 20.2818 7.35132 22.5706 11.3281 22.6562V21.0937C9.26662 21.0512 7.18408 20.311 5.68847 19.1035C3.83837 17.6098 2.59326 15.3974 2.37743 12.8906C2.35498 12.6333 2.34375 12.3725 2.34375 12.1093V9.90152C2.0029 10.7983 1.5625 12.235 1.5625 13.6718C1.5625 15.1582 1.77198 16.2256 2.0138 16.9626Z" fill="#156DAB"/>
<path d="M2.0138 16.9626C1.77198 16.2256 1.5625 15.1582 1.5625 13.6718C1.5625 12.235 2.0029 10.7983 2.34375 9.90154V7.03125H0.78125V12.1093C0.78125 13.8592 1.22962 15.5095 2.0138 16.9626Z" fill="#3DA9FC"/>
<path d="M20.2495 5.12354L19.6367 1.75196C19.5688 1.37989 19.6484 0.9961 19.8584 0.68115L19.879 0.64991C20.15 0.24415 20.6055 0 21.0938 0C21.2276 0 21.3589 0.01856 21.4844 0.05323C21.5884 0.08203 21.688 0.12208 21.7827 0.17286C21.9912 0.28468 22.1728 0.44727 22.3086 0.64991L22.3291 0.68115C22.539 0.9961 22.6186 1.37989 22.5508 1.75196L21.938 5.12354C21.9052 5.30323 22.0434 5.46875 22.226 5.46875H22.3633C22.525 5.46875 22.6562 5.6001 22.6562 5.76172V6.64063C22.6562 6.85645 22.4814 7.03125 22.2656 7.03125H19.9219C19.706 7.03125 19.5312 6.85645 19.5312 6.64063V5.76172C19.5312 5.6001 19.6626 5.46875 19.8242 5.46875H19.9615C20.1441 5.46875 20.2822 5.30323 20.2495 5.12354Z" fill="#B11835"/>
<path d="M21.0307 5.12353L20.4179 1.75195C20.3501 1.37988 20.4297 0.996093 20.6396 0.681143L20.6601 0.649903C20.8569 0.355463 21.1509 0.145993 21.4844 0.0532227C21.5884 0.0820227 21.688 0.122063 21.7827 0.172853C21.9912 0.284663 22.1728 0.447263 22.3086 0.649903L22.3291 0.681143C22.539 0.996093 22.6186 1.37988 22.5508 1.75195L21.938 5.12353C21.9052 5.30322 22.0434 5.46874 22.226 5.46874H22.3633C22.5249 5.46874 22.6562 5.60009 22.6562 5.76171V6.64062C22.6562 6.85644 22.4814 7.03124 22.2656 7.03124H20.7031C20.4873 7.03124 20.3125 6.85644 20.3125 6.64062V5.76171C20.3125 5.60009 20.4438 5.46874 20.6054 5.46874H20.7427C20.9253 5.46874 21.0635 5.30322 21.0307 5.12353Z" fill="#EF4565"/>
<path d="M1.5625 7.03125H2.73437C2.95011 7.03125 3.125 6.85637 3.125 6.64063V5.76172C3.125 5.59992 2.99383 5.46875 2.83203 5.46875H2.69478C2.512 5.46875 2.37384 5.30321 2.40654 5.12338L3.0195 1.75208C3.08717 1.37989 3.00772 0.99597 2.79788 0.68121L2.7771 0.65004C2.50637 0.24394 2.05058 0 1.5625 0C1.07442 0 0.61862 0.24394 0.34789 0.65004L0.32711 0.68121C0.11727 0.99597 0.03782 1.37989 0.10549 1.75208L0.71845 5.12338C0.75115 5.30321 0.61299 5.46875 0.43021 5.46875H0.29296C0.13116 5.46875 0 5.59992 0 5.76172V6.64063C0 6.85637 0.17488 7.03125 0.39062 7.03125H1.5625Z" fill="#B11835"/>
<path d="M1.4995 5.12353L0.88671 1.75195C0.81884 1.37988 0.89843 0.996093 1.10839 0.681143L1.1289 0.649903C1.32568 0.355463 1.61962 0.145993 1.95312 0.0532227C2.05712 0.0820227 2.15673 0.122063 2.25146 0.172853C2.45996 0.284663 2.6416 0.447263 2.77734 0.649903L2.79785 0.681143C3.00781 0.996093 3.0874 1.37988 3.01953 1.75195L2.40674 5.12353C2.37402 5.30322 2.5122 5.46874 2.69482 5.46874H2.83203C2.99365 5.46874 3.125 5.60009 3.125 5.76171V6.64062C3.125 6.85644 2.95019 7.03124 2.73437 7.03124H1.17187C0.95605 7.03124 0.78125 6.85644 0.78125 6.64062V5.76171C0.78125 5.60009 0.91259 5.46874 1.07421 5.46874H1.21142C1.39404 5.46874 1.53222 5.30322 1.4995 5.12353Z" fill="#EF4565"/>
<path d="M11.5195 21.0913L12.1094 21.0288C13.4555 20.8032 14.6064 20.0029 15.3032 18.8891C16.0786 18.5786 16.8008 18.1631 17.4516 17.6601C17.4306 17.7632 17.4077 17.8657 17.3818 17.9673C17.3818 17.9678 17.3813 17.9678 17.3813 17.9682C17.2798 18.3628 17.1406 18.7427 16.9678 19.1035C16.666 19.3471 16.3476 19.5718 16.0156 19.7744C14.7021 20.5805 13.165 21.0576 11.5195 21.0913Z" fill="#156DAB"/>
<path d="M5.07812 16.4062C5.07812 12.9546 7.87647 10.1562 11.3281 10.1562C14.7798 10.1562 17.5781 12.9546 17.5781 16.4062C17.5781 16.8359 17.5342 17.2549 17.4516 17.6601C16.8008 18.1631 16.0786 18.5786 15.3032 18.8891C15.7544 18.1689 16.0156 17.3183 16.0156 16.4062C16.0156 13.8174 13.917 11.7187 11.3281 11.7187C8.73925 11.7187 6.64062 13.8174 6.64062 16.4062C6.64062 18.9951 8.73925 21.0937 11.3281 21.0937V22.6562C11.207 22.6533 11.0864 22.6465 10.9663 22.6367C8.68993 22.4492 6.62451 21.0561 5.68848 19.1035C5.51563 18.7427 5.37647 18.3623 5.27442 17.9673C5.14649 17.4682 5.07812 16.9453 5.07812 16.4062Z" fill="#3DA9FC"/>
<path d="M4.90763 19.1523C5.36279 20.1018 6.08552 20.9184 6.9692 21.529C8.16587 22.1944 9.53002 22.5949 10.9828 22.6499L10.9667 22.6367C8.69034 22.4492 6.62491 21.0561 5.68888 19.1035C5.51602 18.7427 5.37686 18.3623 5.27481 17.9673C4.8016 17.3014 4.43569 16.5538 4.20174 15.7499C4.1187 17.597 4.75808 18.8401 4.90763 19.1523Z" fill="#156DAB"/>
<path d="M19.1406 14.4531C18.8149 15.4301 18.4216 16.2027 18.0733 16.7724C17.8795 17.1935 17.6476 17.5933 17.3818 17.9673C17.3818 17.9677 17.3813 17.9677 17.3813 17.9682C17.2798 18.3628 17.1406 18.7427 16.9677 19.1035C16.666 19.3471 16.3476 19.5718 16.0156 19.7744V20.3125L20.3125 16.7968L20.2788 12.8906C20.1974 11.9449 19.9692 11.0412 19.6176 10.2021C19.6571 11.3269 19.6139 13.0333 19.1406 14.4531Z" fill="#156DAB"/>
<path d="M6.9688 21.529C6.08512 20.9184 5.36239 20.1018 4.90723 19.1523C4.75769 18.8401 4.1183 17.597 4.20134 15.7498C4.00948 15.0905 3.90625 14.3933 3.90625 13.6718C3.90625 9.57274 7.22901 6.25 11.3282 6.25C15.4273 6.25 18.75 9.57274 18.75 13.6718C18.75 14.7788 18.5076 15.8291 18.0734 16.7724C18.4216 16.2027 18.815 15.4301 19.1407 14.4531C19.614 13.0332 19.6571 11.3269 19.6176 10.2021C18.2604 6.96298 15.0601 4.6875 11.3282 4.6875C6.6294 4.6875 2.77295 8.29443 2.37744 12.8906C2.35498 13.1479 2.34375 13.4086 2.34375 13.6718C2.34375 17.0517 4.21057 19.9952 6.9688 21.529Z" fill="#3DA9FC"/>
<path d="M11.3281 21.0937C13.3896 21.0512 15.4721 20.311 16.9677 19.1035C18.8178 17.6098 20.063 15.3974 20.2788 12.8906C20.3012 12.6333 20.3125 12.3725 20.3125 12.1093V7.03125H21.875V12.1093C21.875 17.8564 17.0459 22.5332 11.3281 22.6562V21.0937Z" fill="#3DA9FC"/>
<path d="M28.8362 18V6.80001H33.2042C34.9535 6.80001 36.3829 7.33334 37.4922 8.40001C38.6015 9.45601 39.1562 10.7893 39.1562 12.4C39.1562 14 38.5962 15.3333 37.4762 16.4C36.3669 17.4667 34.9429 18 33.2042 18H28.8362ZM31.3002 15.776H33.2042C34.2175 15.776 35.0335 15.4667 35.6522 14.848C36.2709 14.2187 36.5802 13.4027 36.5802 12.4C36.5802 11.408 36.2655 10.5973 35.6362 9.96801C35.0175 9.33868 34.2069 9.02401 33.2042 9.02401H31.3002V15.776ZM41.0958 18V9.42401H43.5278V11.152C44.0825 9.84001 44.9945 9.21068 46.2638 9.26401V11.808H46.1358C45.3038 11.808 44.6585 12.064 44.1998 12.576C43.7518 13.0773 43.5278 13.8293 43.5278 14.832V18H41.0958ZM51.6129 18.192C50.3116 18.192 49.2396 17.7813 48.3969 16.96C47.5543 16.128 47.1329 15.0507 47.1329 13.728C47.1329 12.48 47.5329 11.424 48.3329 10.56C49.1329 9.69601 50.1463 9.26401 51.3729 9.26401C52.7276 9.26401 53.7623 9.71201 54.4769 10.608C55.1916 11.504 55.5489 12.608 55.5489 13.92C55.5489 14.048 55.5383 14.2613 55.5169 14.56H49.5489C49.6663 15.104 49.9063 15.52 50.2689 15.808C50.6316 16.096 51.0903 16.24 51.6449 16.24C52.4023 16.24 53.0956 15.9467 53.7249 15.36L55.1169 16.592C54.2529 17.6587 53.0849 18.192 51.6129 18.192ZM49.5169 13.04H53.1809C53.1063 12.4853 52.9089 12.0427 52.5889 11.712C52.2796 11.3813 51.8743 11.216 51.3729 11.216C50.8823 11.216 50.4716 11.3813 50.1409 11.712C49.8209 12.032 49.6129 12.4747 49.5169 13.04ZM59.7934 18.16C58.9508 18.16 58.2468 17.9253 57.6814 17.456C57.1268 16.9867 56.8494 16.336 56.8494 15.504C56.8494 14.5973 57.1588 13.9147 57.7774 13.456C58.4068 12.9973 59.2494 12.768 60.3054 12.768C61.0201 12.768 61.7188 12.8853 62.4014 13.12V12.976C62.4014 11.9307 61.7881 11.408 60.5614 11.408C59.8254 11.408 59.0361 11.5627 58.1934 11.872L57.5854 10.016C58.6308 9.55734 59.7401 9.32801 60.9134 9.32801C62.2041 9.32801 63.1694 9.64801 63.8094 10.288C64.4281 10.9067 64.7374 11.8187 64.7374 13.024V18H62.3854V17.072C61.7348 17.7973 60.8708 18.16 59.7934 18.16ZM60.5294 16.48C61.0948 16.48 61.5534 16.3413 61.9054 16.064C62.2574 15.776 62.4334 15.4133 62.4334 14.976V14.544C61.9748 14.3307 61.4574 14.224 60.8814 14.224C60.3481 14.224 59.9321 14.3307 59.6334 14.544C59.3454 14.7467 59.2014 15.0453 59.2014 15.44C59.2014 15.76 59.3241 16.016 59.5694 16.208C59.8148 16.3893 60.1348 16.48 60.5294 16.48ZM66.8302 18V9.42401H69.2622V10.64C69.9769 9.72268 70.8195 9.26401 71.7902 9.26401C72.9315 9.26401 73.7369 9.71734 74.2062 10.624C74.9849 9.71734 75.9235 9.26401 77.0222 9.26401C77.9395 9.26401 78.6489 9.53601 79.1502 10.08C79.6622 10.6133 79.9182 11.392 79.9182 12.416V18H77.4862V13.216C77.4862 12.0533 77.0115 11.472 76.0622 11.472C75.6035 11.472 75.2409 11.6213 74.9742 11.92C74.7182 12.2187 74.5902 12.6507 74.5902 13.216V18H72.1582V13.216C72.1582 12.0533 71.6835 11.472 70.7342 11.472C70.2755 11.472 69.9129 11.6213 69.6462 11.92C69.3902 12.2187 69.2622 12.6507 69.2622 13.216V18H66.8302ZM82.2893 18V6.80001H87.4893C88.78 6.80001 89.756 7.13068 90.4173 7.79201C90.9293 8.30401 91.1853 8.94934 91.1853 9.72801C91.1853 10.784 90.6946 11.5893 89.7133 12.144C90.4066 12.4107 90.9293 12.7627 91.2813 13.2C91.6333 13.6267 91.8093 14.2027 91.8093 14.928C91.8093 15.9307 91.436 16.6933 90.6893 17.216C89.9426 17.7387 88.9186 18 87.6173 18H82.2893ZM84.6893 11.328H86.9613C88.1453 11.328 88.7373 10.9227 88.7373 10.112C88.7373 9.73868 88.5986 9.45601 88.3213 9.26401C88.044 9.06134 87.644 8.96001 87.1213 8.96001H84.6893V11.328ZM84.6893 15.84H87.6173C88.78 15.84 89.3613 15.424 89.3613 14.592C89.3613 13.7813 88.7533 13.376 87.5373 13.376H84.6893V15.84ZM101.1 16.896C100.215 17.76 99.1109 18.192 97.7882 18.192C96.4655 18.192 95.3615 17.7653 94.4762 16.912C93.6015 16.048 93.1642 14.9867 93.1642 13.728C93.1642 12.48 93.6069 11.424 94.4922 10.56C95.3882 9.69601 96.4975 9.26401 97.8202 9.26401C99.1429 9.26401 100.242 9.69601 101.116 10.56C102.002 11.4133 102.444 12.4693 102.444 13.728C102.444 14.976 101.996 16.032 101.1 16.896ZM97.8202 16.096C98.4922 16.096 99.0309 15.872 99.4362 15.424C99.8415 14.9653 100.044 14.4 100.044 13.728C100.044 13.0773 99.8309 12.5227 99.4042 12.064C98.9882 11.5947 98.4495 11.36 97.7882 11.36C97.1162 11.36 96.5775 11.5893 96.1722 12.048C95.7669 12.496 95.5642 13.056 95.5642 13.728C95.5642 14.3787 95.7722 14.9387 96.1882 15.408C96.6149 15.8667 97.1589 16.096 97.8202 16.096ZM107.725 18.16C106.659 18.16 105.741 17.76 104.973 16.96C104.205 16.16 103.821 15.072 103.821 13.696C103.821 12.3307 104.2 11.2533 104.957 10.464C105.725 9.66401 106.648 9.26401 107.725 9.26401C108.792 9.26401 109.683 9.69068 110.397 10.544V6.32001H112.829V18H110.397V16.768C109.715 17.696 108.824 18.16 107.725 18.16ZM106.861 15.44C107.267 15.8773 107.763 16.096 108.349 16.096C108.936 16.096 109.427 15.8773 109.821 15.44C110.227 14.992 110.429 14.4107 110.429 13.696C110.429 13.0027 110.227 12.4373 109.821 12C109.427 11.552 108.936 11.328 108.349 11.328C107.763 11.328 107.267 11.552 106.861 12C106.456 12.4373 106.253 13.0133 106.253 13.728C106.253 14.4213 106.456 14.992 106.861 15.44ZM117.05 20.608C116.282 20.608 115.562 20.4107 114.89 20.016L115.706 18.256C116.079 18.48 116.426 18.592 116.746 18.592C117.13 18.592 117.413 18.4053 117.594 18.032L114.234 9.42401H116.81L118.762 15.264L120.634 9.42401H123.162L119.866 18.208C119.535 19.0933 119.162 19.712 118.746 20.064C118.33 20.4267 117.765 20.608 117.05 20.608Z" fill="#094067"/>
</svg>
